<?xml version="1.0" encoding="utf-8"?>
<!-- Generator: Adobe Illustrator 19.2.1, SVG Export Plug-In . SVG Version: 6.00 Build 0)  -->
<svg version="1.1" id="layer" xmlns="http://www.w3.org/2000/svg" xmlns:xlink="http://www.w3.org/1999/xlink" x="0px" y="0px"
	 viewBox="0 0 652 652" style="enable-background:new 0 0 652 652;" xml:space="preserve">
<style type="text/css">
	.st0{fill:#0075BF;}
	.st1{fill:#F59C00;}
</style>
<g>
	<path class="st0" d="M37.4,266.8h11.3c1.5,0,3-0.1,4.4-0.4c1.4-0.3,2.7-0.8,3.8-1.5c1.1-0.7,2-1.6,2.7-2.8c0.7-1.2,1-2.7,1-4.5
		c0-2-0.5-3.5-1.4-4.7c-0.9-1.2-2.1-2.1-3.5-2.8c-1.4-0.7-3-1.1-4.7-1.3c-1.7-0.2-3.4-0.3-5-0.3h-8.7V266.8z M20.4,234.1h28.6
		c4,0,7.8,0.4,11.3,1.1c3.6,0.7,6.7,2,9.3,3.8c2.6,1.8,4.7,4.2,6.3,7.2c1.6,3,2.3,6.8,2.3,11.4c0,4.5-0.7,8.3-2.2,11.3
		c-1.5,3-3.5,5.5-6,7.3c-2.5,1.8-5.6,3.1-9,3.9c-3.5,0.8-7.3,1.2-11.3,1.2H37.4v30.1h-17V234.1z"/>
	<path class="st0" d="M99.8,228.9v36.6h0.2c0.4-1,1-2,1.9-3.1c0.9-1,1.9-1.9,3.2-2.7c1.2-0.8,2.7-1.5,4.4-2c1.7-0.5,3.5-0.8,5.4-0.8
		c4.1,0,7.5,0.6,10,1.9c2.5,1.3,4.5,3,5.9,5.3c1.4,2.2,2.4,4.9,2.9,7.9c0.5,3.1,0.8,6.4,0.8,9.9v29.2h-16.3v-25.9
		c0-1.5-0.1-3.1-0.2-4.7c-0.1-1.6-0.4-3.1-1-4.5c-0.5-1.4-1.4-2.5-2.5-3.4c-1.1-0.9-2.7-1.3-4.9-1.3c-2.1,0-3.8,0.4-5.1,1.1
		c-1.3,0.8-2.3,1.8-3,3c-0.7,1.3-1.1,2.7-1.4,4.3s-0.3,3.3-0.3,5v26.4H83.5v-82.3H99.8z"/>
	<path class="st0" d="M171.7,288c-1.2,0-2.8,0-4.6,0.2s-3.6,0.4-5.3,0.9c-1.7,0.5-3.2,1.3-4.4,2.3c-1.2,1-1.8,2.4-1.8,4.2
		c0,2,0.8,3.4,2.5,4.4c1.7,0.9,3.4,1.4,5.2,1.4c1.6,0,3.1-0.2,4.6-0.6c1.5-0.4,2.8-1.1,4-1.9c1.2-0.8,2.1-1.8,2.8-3.1
		c0.7-1.2,1-2.7,1-4.4V288H171.7z M175.7,304.6h-0.2c-1.8,2.8-4.2,4.9-7.2,6.1c-3,1.2-6.2,1.9-9.5,1.9c-2.5,0-4.8-0.3-7.1-1
		c-2.3-0.7-4.3-1.7-6-3.1c-1.7-1.4-3.1-3.1-4.1-5.1c-1-2-1.5-4.4-1.5-7.1c0-3.1,0.6-5.6,1.7-7.7c1.1-2.1,2.7-3.8,4.6-5.2
		c1.9-1.4,4.1-2.4,6.6-3.2c2.5-0.8,5-1.3,7.7-1.7c2.7-0.4,5.3-0.6,7.9-0.6c2.7-0.1,5.1-0.1,7.4-0.1c0-2.9-1-5.2-3.1-6.9
		c-2.1-1.7-4.5-2.6-7.3-2.6c-2.7,0-5.1,0.6-7.4,1.7c-2.2,1.1-4.2,2.7-5.9,4.6l-8.7-8.9c3.1-2.8,6.6-5,10.7-6.4
		c4.1-1.4,8.3-2.1,12.6-2.1c4.8,0,8.7,0.6,11.8,1.8c3.1,1.2,5.6,3,7.4,5.3s3.1,5.2,3.9,8.6c0.7,3.4,1.1,7.3,1.1,11.7v26.9h-15V304.6
		z"/>
	<path class="st0" d="M197.4,258.3h16.3v8.5h0.2c1.7-3.3,3.8-5.7,6.2-7.4c2.4-1.6,5.4-2.4,9-2.4c0.9,0,1.9,0,2.8,0.1
		c0.9,0.1,1.8,0.2,2.6,0.4v14.9c-1.2-0.4-2.3-0.6-3.4-0.8c-1.1-0.2-2.3-0.3-3.5-0.3c-3.1,0-5.6,0.4-7.4,1.3
		c-1.8,0.9-3.2,2.1-4.2,3.6c-1,1.6-1.6,3.4-1.9,5.6c-0.3,2.2-0.4,4.6-0.4,7.2v22.1h-16.3V258.3z"/>
	<path class="st0" d="M240.2,258.3h15.7v7.2h0.2c0.5-1,1.2-2,2.2-3.1c0.9-1,2.1-1.9,3.4-2.7c1.3-0.8,2.8-1.4,4.5-2
		c1.7-0.5,3.5-0.8,5.4-0.8c3.7,0,7,0.8,9.9,2.3c2.9,1.5,5,3.9,6.5,7.2c1.9-3.4,4.2-5.8,6.9-7.3c2.7-1.4,6-2.2,9.9-2.2
		c3.6,0,6.5,0.6,9,1.8c2.4,1.2,4.4,2.8,5.8,4.9c1.4,2.1,2.4,4.5,3.1,7.3c0.6,2.8,0.9,5.8,0.9,9v31.3h-16.3v-30.8
		c0-2.5-0.5-4.6-1.6-6.4c-1-1.8-2.9-2.7-5.6-2.7c-1.9,0-3.5,0.3-4.7,0.9c-1.3,0.6-2.3,1.5-3.1,2.6c-0.8,1.1-1.3,2.4-1.6,3.8
		c-0.3,1.4-0.5,3-0.5,4.6v28h-16.3v-28c0-0.9,0-2.1-0.1-3.5c-0.1-1.4-0.3-2.7-0.8-3.9c-0.4-1.2-1.2-2.3-2.1-3.2
		c-1-0.9-2.4-1.3-4.3-1.3c-2.1,0-3.8,0.4-5.1,1.1c-1.3,0.8-2.3,1.8-3,3.1c-0.7,1.3-1.1,2.7-1.4,4.3c-0.2,1.6-0.3,3.3-0.3,5v26.4
		h-16.3V258.3z"/>
	<path class="st0" d="M360.6,288c-1.2,0-2.8,0-4.6,0.2s-3.6,0.4-5.3,0.9c-1.7,0.5-3.2,1.3-4.4,2.3c-1.2,1-1.8,2.4-1.8,4.2
		c0,2,0.8,3.4,2.5,4.4c1.7,0.9,3.4,1.4,5.2,1.4c1.6,0,3.1-0.2,4.6-0.6c1.5-0.4,2.8-1.1,4-1.9c1.2-0.8,2.1-1.8,2.8-3.1
		c0.7-1.2,1-2.7,1-4.4V288H360.6z M364.7,304.6h-0.2c-1.8,2.8-4.2,4.9-7.2,6.1c-3,1.2-6.2,1.9-9.5,1.9c-2.5,0-4.8-0.3-7.1-1
		c-2.3-0.7-4.3-1.7-6-3.1c-1.7-1.4-3.1-3.1-4.1-5.1c-1-2-1.5-4.4-1.5-7.1c0-3.1,0.6-5.6,1.7-7.7c1.1-2.1,2.7-3.8,4.6-5.2
		c1.9-1.4,4.1-2.4,6.6-3.2c2.5-0.8,5-1.3,7.7-1.7c2.7-0.4,5.3-0.6,7.9-0.6c2.7-0.1,5.1-0.1,7.4-0.1c0-2.9-1-5.2-3.1-6.9
		c-2.1-1.7-4.5-2.6-7.4-2.6c-2.7,0-5.1,0.6-7.3,1.7c-2.2,1.1-4.2,2.7-5.9,4.6l-8.7-8.9c3.1-2.8,6.6-5,10.7-6.4
		c4.1-1.4,8.3-2.1,12.6-2.1c4.8,0,8.7,0.6,11.8,1.8c3.1,1.2,5.6,3,7.4,5.3s3.1,5.2,3.9,8.6c0.7,3.4,1.1,7.3,1.1,11.7v26.9h-15V304.6
		z"/>
	<path class="st0" d="M422.3,275.4c-0.8-1.2-1.9-2.1-3.4-2.9c-1.4-0.8-3-1.1-4.7-1.1c-4.1,0-7.4,1.2-9.6,3.7
		c-2.3,2.5-3.4,5.7-3.4,9.7c0,4,1.1,7.2,3.4,9.7c2.3,2.5,5.5,3.7,9.6,3.7c1.8,0,3.4-0.4,4.7-1.2c1.3-0.8,2.4-1.7,3.4-2.8l10.8,11.3
		c-2.5,2.6-5.5,4.4-9,5.5c-3.5,1-6.7,1.6-9.9,1.6c-4.1,0-7.9-0.7-11.5-2c-3.6-1.3-6.7-3.2-9.4-5.6c-2.7-2.4-4.7-5.4-6.3-8.8
		c-1.5-3.4-2.3-7.2-2.3-11.4c0-4.2,0.8-8,2.3-11.4c1.5-3.4,3.6-6.3,6.3-8.8c2.7-2.4,5.8-4.3,9.4-5.6c3.6-1.3,7.4-2,11.5-2
		c3.1,0,6.4,0.5,9.9,1.6c3.5,1.1,6.4,2.9,9,5.5L422.3,275.4z"/>
	<path class="st0" d="M455.1,318.5c0.5-1.1,1-2.4,1.6-3.8l1.2-3.1l-23.2-53.4h17.6l13.6,35h0.2l11.7-35h16.8l-24,61.5
		c-1.1,2.8-2.1,5.3-3.2,7.5c-1,2.2-2.3,4-3.9,5.5c-1.6,1.5-3.5,2.6-5.9,3.4c-2.4,0.8-5.6,1.2-9.5,1.2c-4.2,0-8.3-0.7-12.2-2
		l2.2-13.4c2.5,1.1,5,1.6,7.6,1.6c1.8,0,3.3-0.2,4.5-0.6c1.2-0.4,2.1-1,2.9-1.7C453.9,320.5,454.6,319.6,455.1,318.5"/>
	<path class="st0" d="M510.8,246.4h2.3c1.1,0,1.9-0.2,2.3-0.5c0.4-0.3,0.6-0.8,0.6-1.3c0-0.6-0.3-1.1-0.8-1.4
		c-0.4-0.2-1.1-0.3-2.2-0.3h-2.2V246.4z M508.9,253.1v-12h4.1c1.4,0,2.4,0.1,3.1,0.3c0.6,0.2,1.1,0.6,1.5,1.2
		c0.4,0.5,0.6,1.1,0.6,1.8c0,0.9-0.3,1.6-0.9,2.3c-0.6,0.6-1.4,1-2.5,1.1c0.4,0.2,0.8,0.4,1,0.6c0.5,0.5,1.1,1.3,1.8,2.4l1.5,2.3
		h-2.4l-1.1-1.9c-0.8-1.4-1.4-2.3-1.9-2.7c-0.4-0.4-1-0.5-1.7-0.5h-1.1v5.1H508.9z M513.3,237.9c-1.6,0-3.1,0.4-4.6,1.2
		c-1.5,0.8-2.6,1.9-3.5,3.4c-0.8,1.5-1.3,3-1.3,4.7c0,1.6,0.4,3.1,1.2,4.6c0.8,1.5,2,2.6,3.4,3.4c1.5,0.8,3,1.2,4.6,1.2
		c1.6,0,3.1-0.4,4.6-1.2c1.5-0.8,2.6-2,3.4-3.4c0.8-1.5,1.2-3,1.2-4.6c0-1.6-0.4-3.2-1.2-4.7c-0.8-1.5-2-2.6-3.5-3.4
		C516.4,238.3,514.9,237.9,513.3,237.9 M513.3,236c1.9,0,3.7,0.5,5.5,1.4c1.8,1,3.2,2.3,4.2,4.1c1,1.8,1.5,3.6,1.5,5.6
		c0,1.9-0.5,3.8-1.5,5.5c-1,1.8-2.4,3.1-4.1,4.1c-1.8,1-3.6,1.5-5.5,1.5c-1.9,0-3.8-0.5-5.5-1.5c-1.8-1-3.1-2.4-4.1-4.1
		c-1-1.8-1.5-3.6-1.5-5.5c0-1.9,0.5-3.8,1.5-5.6c1-1.8,2.4-3.2,4.2-4.1C509.6,236.5,511.5,236,513.3,236"/>
	<path class="st1" d="M620.4,320.3c0-17.4-15-14.1-46-11.3c0-14.4-0.4-28.2-2.6-37.9l-0.8-2.6c-1.8-5.3-3.2-8.9-6.3-9.2
		c-7.1,11.8-7.5,34.4-8.2,50.6c-18,1.2-32.3,2.7-45.4,2.7l-0.9,0c-6.9,20.2,13.8,18,44.9,15.5c-3.6,15.6-7.6,33.2-5.5,46.4
		c15.7-5.1,20.6-25.7,22.8-48.1C600.3,323,614.8,322,620.4,320.3"/>
	<path class="st1" d="M366,370.6c-4.8,0-9.2,0.7-13.2,2.1c-4.2,1.4-7.7,3.8-10.5,6.9c-3,3.4-4.5,7.2-4.5,11.3c0,1.7,0.3,3.4,0.7,5
		c-0.9,3.2-2,5.2-3.4,5.8c-0.3,0.1-1,0.5-2.5-0.3l-0.3-0.1c-1.3-0.6-2.5-1.4-3.7-2.1c-3.2-2-7.2-6-12-11.8c-0.2-0.2-4.7-5.3-4.7-5.4
		c-3.1-3.3-6.3-4.9-9.6-4.9c-2,0-4.3,0.5-6.6,1.5c-4,1.7-7,5-9.2,9.9c0,0.1-1,3-1.9,5.8c-1.2-2-2.3-4.7-3.5-8.2
		c2.7-6.5,4.3-14.2,6.4-24.4c3.4-17.2,2.8-30.6-1.7-37c-1.6-2.3-3.7-3.7-6.2-4.1c-7-1.1-12.4,1.7-14.5,7.4l-0.1,0.3
		c-1.1,2.9-1.6,6.2-1.6,11.2c0,10,0.3,13.2,0.9,17.9l0.2,1.6c0.6,5.2,1.8,13.3,3.4,21.6c0.2,1.1,0.5,2.2,0.7,3.2
		c-4.2,6.7-9.8,11.2-17,13.8c-0.1,0-0.2,0.1-0.2,0.1c-3.5,1-6.9,1.8-10.4,2.4c-0.7,0.1-1.3,0.2-1.9,0.3c-2.9,0.5-5,0.9-10.2,0.8
		c-6.4-0.1-12.2-1.1-17.2-2.9c-3.8-1.4-7-3.8-10.1-7.4c-1.6-1.8-2.7-3.7-3.4-5.6c-0.6-2-1-4.3-1-6.8c0-5.8,1.8-12,5.5-18.6
		c3.3-6.1,7.4-10.9,12-14.5c3.4-2.7,5.1-3.8,5.9-4.2c4.3-2.5,6.5-2.3,9.2,0.5c1.4,1.5,2.4,3.2,3.1,5.2c0.7,2.2,1,5.8,1,10.5
		c0,0.4,0.2,4.4,3,5.6c2.6,1.2,6.2,1.5,8.9-3.5c2.2-4.2,1.8-9.1,1.2-13.7c-0.6-4.8-2.3-8.6-5.7-12.7c-4.4-5.4-11.2-7.9-18.1-6.8
		c-6,1-9,2.7-13,5.3c-1.9,1.2-6.7,4.5-10.2,9.1c-6.2,8-11,16.7-14.2,26.1l-2,7.6c-0.5,2.5-0.7,5.1-0.7,7.6c0,4.9,1,9.3,3.1,13.2
		c2,3.9,5.9,7.8,10.5,10.5c4.8,2.8,10.1,4.8,16.3,6.1c4.8,1,10.1,1.9,16.7,1.9c7.6,0,11.5-0.7,19.2-3c5.6-1.6,8.4-3,10.7-4.1
		l1.2-0.6c1-0.5,2-1,2.9-1.5c3.8-1.9,7-4,9.7-6.6c0.5,1.4,1.1,2.8,1.6,4.1c1.1,2.8,2.6,5.1,4.3,7c2.1,2.3,4.4,3.5,6.8,3.5
		c1.9,0,3.7-0.9,5.2-2.7c1.2-1.5,2.2-3.4,2.8-6c1.1-4.3,2.4-7.8,3.7-10.3c1.3-2.5,2.7-3.8,3.9-3.8c0.2,0,0.8,0.1,2,0.8
		c1.1,0.7,2.1,1.7,3.2,3.1c5.5,6.8,8.9,10.8,10.9,12.6c3.2,2.8,6.1,4.6,8.8,5.6c3,1,6.1,0.9,6.2,0.9c0.3,0,0.6,0,0.8,0
		c5.4-0.1,9.6-2.3,12.2-6.4c4.3,3.9,8.9,6.1,13.9,6.7l3.2,0.3c6.7,0,12.4-2.4,16.9-7c5.1-5.2,6.8-12.8,6.8-17.7
		C386.6,375.5,375.5,370.6,366,370.6 M371.1,398.1L371.1,398.1c-2.6,2-5.3,3-8.1,3c-3,0-5.9-0.7-8.5-2.2c-2-1.1-3.4-2.3-4.1-3.8
		c0.9-2.7,1.7-5.2,2.1-7.2c0.7-0.6,1.5-1.1,2.5-1.5c3.3-1.7,6.7-2.6,10-2.6c2.8,0,5.2,0.6,7.1,1.9c2,1.3,2.9,2.8,2.9,5.1
		C375.2,393.7,373.9,396,371.1,398.1 M277.6,353.5c-0.4,2.8-0.8,6.1-1.5,9.5c0-0.4-0.1-0.7-0.1-1.1c-0.8-8-1-15.8-1-15.9
		c-0.1-2-0.2-4.2-0.2-6.2c0-3.7,0.7-6.7,1.7-7.5c0.1-0.1,0.2-0.1,0.3-0.1c0.1,0,0.1,0,0.2,0C280.4,333.1,278.3,348.4,277.6,353.5"/>
	<path class="st1" d="M393,354c0.6-3,0.2-7.4-2.2-10c-1.2-1.2-4-4.1-8-2.6c-4.6,1.7-4.6,8.9-3.4,12.4c1.3,3.6,4.5,6,7.7,6
		c0.2,0,0.5,0,0.7,0C389.6,359.6,392,358.4,393,354"/>
	<path class="st1" d="M542.6,387.6c-0.7-0.9-2.2-1.6-4.1-0.7l-0.3,0.2c-0.1,0-6.2,4.4-13.1,7.5c-6.8,3.1-9.5,4.2-17.5,5.3
		c-5.1,0.7-7.5,0.6-11.6,0.2c-3.4-0.3-5.8-1.3-9.2-2.8c-2.2-0.9-3.6-1.8-4.8-3.1l6.4-4.4c8.3-5.6,13-11.8,13.9-18.6
		c0-0.1,0.1-1.6,0.1-1.7c0-2.7-0.9-5.3-2.7-7.8c-2-2.7-6.1-5.3-10.9-5c-6.5,0.3-11.3,4.5-15.1,8.5c-4.1,4.4-6.9,10.1-8.3,16.9
		c0,0.1,0,0.1-0.3,4.8c0,1.6,0.2,3.3,0.7,4.9c-4.6,2.6-8.9,4.7-12.8,6.1c-5.3,1.9-10.4,2.9-15.3,2.9c-2.6,0-5.4-0.3-8.2-1
		c-2.5-0.6-4.5-1.8-6.2-3.7c-1.6-1.8-2.3-3.8-2.3-6.4v-1.4c0-2.9,1.2-6.1,3.6-9.7c2.1-3.1,4.2-4.8,5.8-4.8c0.2,0,0.5,0,1.1,0.7
		c0.4,0.4,1,1.5,1.6,4.3l0.7,3.3l3.1-0.8c2.3-0.5,4.1-1.7,5.3-3.3c1.3-1.7,1.9-3.6,1.9-5.8c0-2.6-0.9-5.1-2.7-7.2
		c-1.8-2.1-4.1-3.4-7-3.9l-3.1-0.2c-5.9,0-11.1,2.6-15.4,7.7l-0.5,0.6c-4.4,5.6-6.7,12.2-6.7,19.6c0,5.6,1.4,10.5,4.1,14.7
		c2.8,4.4,7,7.2,12.4,8.6c3.1,0.7,6.2,1.1,9.3,1.1c5.4,0,10.9-0.9,16.6-2.8c4.4-1.4,9.4-3.6,14.9-6.7c1.1-0.6,2.7-1.6,4.7-2.9
		c2.2,2.4,4.9,4.6,8,6.3c6,3.3,12.2,4.8,20.8,4.8c4.9,0,10.4-1.1,13.7-2.1c3.9-1.2,7.6-2.5,12.7-5.2c7.3-3.8,14-9.2,15.9-11.5
		C543.3,391.2,543.7,389.1,542.6,387.6 M488.6,373.4c-1.6,2.2-3.1,3.9-4,4.6l-0.2,0.2c-1.6,1.7-3.5,3.4-6.9,5.8v-0.1l0-0.3
		c0-2.9,0.7-5.5,2.2-7.7c2.4-3.7,4.9-6,7.6-7.2c0.6-0.3,1.2-0.4,1.7-0.4c0.4,0,0.8,0.1,1,0.3c0.5,0.4,0.5,0.6,0.5,0.8
		C490.4,370,490.2,371.2,488.6,373.4"/>
	<path class="st1" d="M403.8,392.5L403.8,392.5l0-0.1c-0.1-0.3-1.6-7.2-1.6-7.2c-1-4.3-3.8-10.8-6-11.9c-2.1-1-4.9-1-6.3,1.3
		c-0.9,1.6-1,4.9-0.4,11.7c0.5,5.5,1.3,11.7,3.6,17c2.5,5.7,6.2,9.1,11,10l3.7,0.7v-4c0-2.9-0.6-6.2-1.7-9.8
		C404,393.7,403.8,392.6,403.8,392.5"/>
</g>
</svg>
